<?xml version="1.0" encoding="utf-8"?>
<!-- Generator: Adobe Illustrator 16.0.0, SVG Export Plug-In . SVG Version: 6.00 Build 0)  -->
<!DOCTYPE svg PUBLIC "-//W3C//DTD SVG 1.1//EN" "http://www.w3.org/Graphics/SVG/1.1/DTD/svg11.dtd">
<svg version="1.1" id="图层_1" xmlns="http://www.w3.org/2000/svg" xmlns:xlink="http://www.w3.org/1999/xlink" x="0px" y="0px"
	 width="40px" height="22px" viewBox="0 0 40 22" enable-background="new 0 0 40 22" xml:space="preserve">
<g id="图层_2" display="none">
	<rect y="-0.013" display="inline" fill="#A0A0A0" width="39.999" height="22.025"/>
</g>
<g id="motor">
	<g>
		<g>
			<path fill="#FFFFFF" d="M27.787,18.725H9.506c-1.025,0-1.86-0.796-1.86-1.773V4.998c0-0.978,0.834-1.774,1.86-1.774h18.28
				c1.024,0,1.858,0.796,1.858,1.774v11.953c0.002,0.454-0.179,0.89-0.51,1.222C28.786,18.523,28.295,18.725,27.787,18.725z
				 M9.646,16.725h18l-0.002-11.5H9.646V16.725z"/>
		</g>
		<g>
			<path fill="#FFFFFF" d="M30.695,15.92h-2.071v-2h2.071c0.225,0,0.367-0.137,0.367-0.23v-5.43c0-0.11-0.157-0.232-0.367-0.232
				h-1.807v-2h1.807c1.306,0,2.367,1.001,2.367,2.232v5.43C33.063,14.919,32.001,15.92,30.695,15.92z"/>
		</g>
		<rect x="4.104" y="10.074" fill="#FFFFFF" width="4.208" height="1.743"/>
		<rect x="31.688" y="10.074" fill="#FFFFFF" width="4.209" height="1.743"/>
	</g>
</g>
<g id="switch" display="none">
	<g display="inline">
		<path fill="#FFFFFF" d="M22.904,18.23c-3.171,0-7.784-0.006-8.497-0.008c-4.089,0-7.341-3.246-7.341-7.236
			c0-3.981,3.251-7.22,7.248-7.22l8.278-0.002c1.73,0,3.126,0,3.424,0.002c3.779,0.294,6.713,3.465,6.713,7.22
			c0,3.765-2.966,6.943-6.752,7.234C25.973,18.229,25.966,18.23,22.904,18.23z M22.593,4.765L14.4,4.767
			c-3.531,0-6.333,2.791-6.333,6.22c0,3.439,2.803,6.236,6.248,6.236c1.224,0.002,11.242,0.014,11.598,0.002
			c3.257-0.252,5.815-2.992,5.815-6.238c0-3.236-2.526-5.969-5.754-6.222C25.715,4.766,24.322,4.765,22.593,4.765z"/>
		<circle fill="#FFFFFF" cx="14.438" cy="11.156" r="4.981"/>
	</g>
	
		<text transform="matrix(1 0 0 1 10.6323 12.7109)" display="inline" fill="#A0A0A0" font-family="'MicrosoftYaHeiUI-Bold'" font-size="4.4765">ON</text>
</g>
<g id="switch_x5F_复制" display="none">
	<g display="inline">
		<path fill="#FFFFFF" d="M22.904,18.23c-3.171,0-7.784-0.006-8.497-0.008c-4.089,0-7.341-3.246-7.341-7.236
			c0-3.981,3.251-7.22,7.248-7.22l8.278-0.002c1.73,0,3.126,0,3.424,0.002c3.779,0.294,6.713,3.465,6.713,7.22
			c0,3.765-2.966,6.943-6.752,7.234C25.973,18.229,25.966,18.23,22.904,18.23z"/>
		<circle fill="#A0A0A0" cx="25.438" cy="11.156" r="4.981"/>
	</g>
	
		<text transform="matrix(1 0 0 1 21.6328 12.7109)" display="inline" fill="#FFFFFF" font-family="'MicrosoftYaHeiUI-Bold'" font-size="4.4765">ON</text>
</g>
<g id="数码管" display="none">
	<g id="图层_4" display="inline">
		<g>
			<g>
				<g>
					<path fill="none" stroke="#FFFFFF" stroke-miterlimit="10" d="M30,16.926c0,0.428-0.385,0.773-0.859,0.773h-18.28
						c-0.476,0-0.86-0.348-0.86-0.773V4.973c0-0.427,0.385-0.774,0.86-0.774h18.28C29.615,4.199,30,4.545,30,4.973V16.926z"/>
				</g>
			</g>
			<text transform="matrix(1 0 0 1 12.792 15.3438)" fill="#FFFFFF" font-family="'LcdD'" font-size="13.1153">88</text>
		</g>
	</g>
</g>
<g id="相机快门" display="none">
	<g display="inline">
		<circle fill="none" stroke="#FFFFFF" stroke-miterlimit="10" cx="19.924" cy="11.185" r="7.297"/>
		<g>
			<path fill="#FFFFFF" d="M21.418,9.004l-0.65-3.271c-0.275-0.043-0.554-0.085-0.843-0.085c-1.518,0-2.891,0.613-3.891,1.602
				L21.418,9.004z"/>
			<path fill="#FFFFFF" d="M22.607,11.479l2.502-2.183c-0.597-1.633-1.931-2.891-3.605-3.393L22.607,11.479z"/>
			<path fill="#FFFFFF" d="M18.752,8.859l-3.195-1.042c-0.723,0.936-1.169,2.093-1.169,3.366c0,0.461,0.073,0.902,0.179,1.329
				L18.752,8.859z"/>
			<path fill="#FFFFFF" d="M21.299,13.537l3.018,0.986c0.707-0.933,1.146-2.08,1.146-3.34c0-0.401-0.047-0.791-0.129-1.169
				L21.299,13.537z"/>
			<path fill="#FFFFFF" d="M18.457,13.335l0.655,3.306c0.267,0.039,0.534,0.082,0.813,0.082c1.532,0,2.919-0.623,3.921-1.629
				L18.457,13.335z"/>
			<path fill="#FFFFFF" d="M17.3,11.041l-2.511,2.191c0.626,1.57,1.951,2.765,3.587,3.244L17.3,11.041z"/>
		</g>
	</g>
</g>
<g id="sound" display="none">
	<g display="inline">
		<g>
			<path fill="#FFFFFF" d="M15.148,13.16c0,0.396-0.322,0.717-0.717,0.717h-2.764c-0.397,0-0.718-0.32-0.718-0.717v-3.9
				c0-0.396,0.321-0.717,0.718-0.717h2.764c0.396,0,0.717,0.321,0.717,0.717V13.16z"/>
			<path fill="#FFFFFF" d="M19.638,17.764c0,0.396-0.322,0.717-0.717,0.717c-0.168,0-0.547-0.237-0.65-0.34
				c-0.025-0.025-4.398-4.383-4.398-4.383c-0.397,0-0.718-0.32-0.718-0.717V9.26c0-0.396,0.321-0.717,0.718-0.717
				c0,0,4.354-4.214,4.358-4.218c0.109-0.105,0.363-0.471,0.69-0.471c0.396,0,0.717,0.321,0.717,0.717L19.638,17.764L19.638,17.764z
				"/>
		</g>
		<g>
			<path fill="#FFFFFF" d="M21.628,13.811c-0.628,0.096-0.847-0.764-0.205-0.979c0.763-0.16,1.314-0.843,1.314-1.622
				c0-0.869-0.604-1.399-1.37-1.638c-0.555-0.259-0.17-1.087,0.336-0.937c1.176,0.337,2.034,1.336,2.034,2.574
				C23.737,12.46,22.852,13.555,21.628,13.811z"/>
			<path fill="#FFFFFF" d="M23.503,15.928c-0.675,0.291-1.085-0.568-0.438-0.9c1.492-0.725,2.418-2.203,2.418-3.86
				c0-0.813-0.238-1.618-0.674-2.303c-0.218-0.339-0.48-0.648-0.783-0.915c-0.308-0.271-0.661-0.442-0.994-0.665
				c-0.613-0.456-0.125-1.096,0.427-0.893c0.104,0.042,0.208,0.1,0.308,0.155c1.654,0.923,2.719,2.725,2.719,4.621
				C26.482,13.18,25.313,15.048,23.503,15.928z"/>
			<path fill="#FFFFFF" d="M24.719,17.969c-0.609,0.203-0.98-0.656-0.389-0.922c2.352-0.992,3.869-3.285,3.869-5.838
				c0-2.551-1.521-4.842-3.87-5.836c-0.592-0.31-0.258-1.107,0.389-0.921c2.724,1.151,4.481,3.803,4.481,6.757
				C29.199,14.164,27.439,16.816,24.719,17.969z"/>
		</g>
	</g>
</g>
<g id="按钮1" display="none">
	<g display="inline">
		<rect x="10.984" y="13.271" fill="#FFFFFF" width="18.816" height="3.34"/>
		<rect x="7.363" y="14.367" fill="#FFFFFF" width="25.895" height="3.341"/>
		<path fill="#FFFFFF" d="M29.063,12.139c-1.963,0.01-15.686,0.008-17.336,0v-1.494c0-1.449,1.176-2.624,2.624-2.624h12.085
			c1.449,0,2.627,1.175,2.627,2.624V12.139z"/>
	</g>
</g>
<g id="按钮2" display="none">
	<g display="inline">
		<rect x="10.984" y="13.271" fill="#FFFFFF" width="18.816" height="3.34"/>
		<rect x="7.363" y="14.367" fill="#FFFFFF" width="25.895" height="3.341"/>
		<path fill="#FFFFFF" d="M29.063,12.176c-1.963,0.008-15.686,0.008-17.336,0V7.85c0-1.449,1.176-2.624,2.624-2.624h12.085
			c1.449,0,2.627,1.175,2.627,2.624V12.176z"/>
	</g>
</g>
<g id="温度" display="none">
	<g display="inline">
		<g>
			<g>
				<g>
					<path fill="#FFFFFF" d="M21.262,13.738h-1.34V3.632c0-0.634-0.606-1.149-1.35-1.149c-0.829,0-1.435,0.515-1.435,1.149
						l-0.042,10.204l-1.298-0.125V3.632c0-1.373,1.207-2.489,2.69-2.489c1.567,0,2.773,1.116,2.773,2.489V13.738z"/>
				</g>
			</g>
			<path fill="#FFFFFF" d="M18.53,20.857c-2.4,0-4.353-1.953-4.353-4.353c0-1.446,0.716-2.793,1.914-3.604l1.004,0.936
				c-0.134,0.094-0.456,0.32-0.548,0.402c-0.652,0.568-1.031,1.391-1.031,2.268c0,1.66,1.351,3.012,3.013,3.012
				c1.66,0,3.011-1.352,3.011-3.012c0-0.854-0.279-1.412-0.949-2.209c-0.094-0.111-0.525-0.48-0.649-0.564l1.021-0.834
				c1.201,0.812,1.919,2.16,1.919,3.607C22.882,18.904,20.929,20.857,18.53,20.857z"/>
		</g>
		<g>
			<g>
				<g>
					<path fill="#FFFFFF" d="M17.856,15.559V6.917c0-0.32,0.291-0.578,0.646-0.578h0.025c0.355,0,0.646,0.257,0.646,0.578V15.5"/>
				</g>
			</g>
			<path fill="#FFFFFF" d="M19.155,14.883c0.879,0.23,1.314,1.137,1.314,1.777c0,1.027-0.83,1.857-1.857,1.857
				c-1.029,0-1.859-0.83-1.859-1.857c0-0.641,0.308-1.42,1.115-1.738"/>
		</g>
		<path fill="#FFFFFF" d="M25.82,3.955c0,0.324-0.262,0.586-0.586,0.586h-1.838c-0.324,0-0.586-0.262-0.586-0.586l0,0
			c0-0.324,0.262-0.586,0.586-0.586h1.838C25.559,3.369,25.82,3.631,25.82,3.955L25.82,3.955z"/>
		<path fill="#FFFFFF" d="M25.82,6.635c0,0.323-0.262,0.586-0.586,0.586h-1.838c-0.324,0-0.586-0.263-0.586-0.586l0,0
			c0-0.324,0.262-0.586,0.586-0.586h1.838C25.559,6.049,25.82,6.311,25.82,6.635L25.82,6.635z"/>
		<path fill="#FFFFFF" d="M25.82,9.44c0,0.324-0.262,0.586-0.586,0.586h-1.838c-0.324,0-0.586-0.262-0.586-0.586l0,0
			c0-0.324,0.262-0.586,0.586-0.586h1.838C25.559,8.854,25.82,9.116,25.82,9.44L25.82,9.44z"/>
		<path fill="#FFFFFF" d="M25.82,12.246c0,0.324-0.262,0.586-0.586,0.586h-1.838c-0.324,0-0.586-0.262-0.586-0.586l0,0
			c0-0.324,0.262-0.586,0.586-0.586h1.838C25.559,11.66,25.82,11.922,25.82,12.246L25.82,12.246z"/>
	</g>
</g>
<g id="陀螺仪" display="none">
	<g display="inline">
		<path fill="none" stroke="#FFFFFF" stroke-width="0.75" stroke-miterlimit="10" d="M27.984,13.143
			c-0.799,2.998-5.02,4.479-9.432,3.307c-4.408-1.174-7.336-4.557-6.538-7.555c0.796-3,5.02-4.48,9.428-3.307
			C25.854,6.76,28.782,10.143,27.984,13.143z"/>
		<path fill="none" stroke="#FFFFFF" stroke-width="0.75" stroke-miterlimit="10" d="M26.963,6.386
			c1.49,2.039-0.32,5.895-4.042,8.616c-3.721,2.719-7.944,3.271-9.434,1.229c-1.493-2.033,0.316-5.895,4.038-8.614
			C21.248,4.897,25.475,4.347,26.963,6.386z"/>
		
			<rect x="20.113" y="5.34" transform="matrix(0.9929 0.119 -0.119 0.9929 1.469 -2.355)" fill="#FFFFFF" width="0.689" height="11.57"/>
		
			<rect x="20.026" y="3.962" transform="matrix(0.2475 0.9689 -0.9689 0.2475 26.3091 -11.2442)" fill="#FFFFFF" width="0.736" height="14.708"/>
		<polygon fill="#FFFFFF" points="24.405,18.01 25.23,17.355 14.399,3.618 13.577,4.266 		"/>
		<circle fill="#FFFFFF" cx="13.813" cy="3.598" r="1.291"/>
		
			<ellipse transform="matrix(-0.2519 -0.9678 0.9678 -0.2519 14.3687 33.7366)" fill="#FFFFFF" cx="20.224" cy="11.314" rx="1.401" ry="2.023"/>
		<path fill="#FFFFFF" d="M26.617,18.404c0,0.711-0.578,1.289-1.29,1.289c-0.714,0-1.293-0.578-1.293-1.289
			c0-0.715,0.579-1.293,1.293-1.293C26.039,17.111,26.617,17.689,26.617,18.404z"/>
	</g>
</g>
<g id="电位器" display="none">
	<g display="inline">
		<g>
			<path fill="#FFFFFF" d="M20.73,4.227c-0.221-0.042-0.44-0.079-0.667-0.102V2.553c0.048,0,0.094-0.006,0.143-0.006
				c0.273,0,0.545,0.019,0.813,0.042L20.73,4.227z M19.403,4.091c-0.046-0.001-0.091-0.007-0.136-0.007
				c-0.187,0-0.368,0.016-0.552,0.028l-0.248-1.411c0.306-0.052,0.617-0.093,0.936-0.117V4.091z M18.055,4.188
				c-0.232,0.036-0.461,0.081-0.687,0.136l-0.443-1.216c0.291-0.103,0.588-0.191,0.893-0.266L18.055,4.188z M16.728,4.508
				c-0.227,0.077-0.451,0.162-0.667,0.258L15.479,3.76c0.267-0.151,0.542-0.289,0.826-0.414L16.728,4.508z M15.463,5.06
				c-0.216,0.118-0.423,0.247-0.626,0.383l-0.663-0.79c0.236-0.195,0.481-0.378,0.737-0.548L15.463,5.06z M13.285,6.813
				c-0.169,0.191-0.329,0.391-0.48,0.598l-0.641-0.37c0.153-0.261,0.317-0.512,0.493-0.754L13.285,6.813z M12.436,7.96
				c-0.138,0.223-0.263,0.451-0.379,0.686L11.488,8.44c0.106-0.281,0.228-0.554,0.357-0.82L12.436,7.96z M11.785,9.251
				c-0.098,0.247-0.184,0.5-0.259,0.76l-0.472-0.085c0.063-0.292,0.135-0.58,0.221-0.861L11.785,9.251z M11.365,10.651
				c-0.054,0.266-0.096,0.537-0.124,0.81h-0.393c0.02-0.299,0.051-0.595,0.094-0.884L11.365,10.651z M11.3,13.617
				c0.005,0.039,0.008,0.078,0.015,0.117l-0.362,0.104c-0.008-0.053-0.012-0.106-0.02-0.157L11.3,13.617z M11.192,12.352
				c0,0.205,0.013,0.404,0.029,0.604l-0.366,0.063c-0.024-0.285-0.038-0.57-0.038-0.858c0-0.013,0.001-0.024,0.001-0.037h0.385
				C11.202,12.199,11.192,12.275,11.192,12.352z M13.742,6.334l-0.679-0.569c0.196-0.232,0.404-0.454,0.623-0.665l0.62,0.738
				C14.11,5.995,13.923,6.16,13.742,6.334z M29.941,13.256l-2.625-0.463c0.009-0.146,0.023-0.291,0.023-0.441
				c0-0.076-0.009-0.152-0.012-0.229h2.62c0.005,0.141,0.021,0.277,0.021,0.422C29.97,12.785,29.96,13.021,29.941,13.256z
				 M27.292,11.461c-0.022-0.219-0.058-0.434-0.097-0.648l2.535-0.446c0.076,0.358,0.141,0.723,0.18,1.094H27.292z M27.046,10.165
				c-0.055-0.208-0.119-0.411-0.188-0.612l2.36-0.859c0.136,0.334,0.25,0.677,0.353,1.026L27.046,10.165z M26.612,8.935
				c-0.087-0.194-0.175-0.386-0.275-0.572l2.086-1.205c0.188,0.299,0.357,0.61,0.515,0.931L26.612,8.935z M25.998,7.791
				c-0.115-0.178-0.24-0.348-0.368-0.516l1.765-1.48c0.231,0.259,0.45,0.529,0.654,0.813L25.998,7.791z M25.208,6.767
				c-0.144-0.158-0.29-0.311-0.442-0.458l1.4-1.671c0.27,0.212,0.525,0.438,0.771,0.677L25.208,6.767z M24.271,5.871
				c-0.168-0.135-0.336-0.268-0.515-0.39l1.022-1.769c0.296,0.161,0.584,0.335,0.861,0.525L24.271,5.871z M23.196,5.133
				c-0.188-0.108-0.384-0.205-0.58-0.297l0.647-1.782c0.314,0.106,0.621,0.229,0.922,0.366L23.196,5.133z M22.63,2.869l-0.625,1.714
				c-0.206-0.077-0.416-0.145-0.629-0.204l0.301-1.708C22,2.722,22.316,2.787,22.63,2.869z M26.737,15.453
				c0.088-0.221,0.169-0.445,0.237-0.674l2.491,0.906c-0.122,0.375-0.266,0.742-0.429,1.098L26.737,15.453z M29.652,15.051
				l-2.506-0.912c0.049-0.225,0.082-0.453,0.113-0.684l2.613,0.461C29.82,14.301,29.747,14.68,29.652,15.051z"/>
		</g>
		<circle fill="none" stroke="#FFFFFF" stroke-width="1.25" stroke-miterlimit="10" cx="19.262" cy="12.301" r="6.55"/>
	</g>
</g>
<g id="限位开关" display="none">
	<g display="inline">
		<path fill="#FFFFFF" d="M17.5,12.396c0,0.449-0.364,0.813-0.813,0.813h-8.25c-0.449,0-0.813-0.363-0.813-0.813l0,0
			c0-0.449,0.364-0.813,0.813-0.813h8.25C17.136,11.584,17.5,11.947,17.5,12.396L17.5,12.396z"/>
		<path fill="#FFFFFF" d="M32.459,12.396c0,0.449-0.364,0.813-0.813,0.813h-8.25c-0.449,0-0.813-0.363-0.813-0.813l0,0
			c0-0.449,0.363-0.813,0.813-0.813h8.25C32.095,11.584,32.459,11.947,32.459,12.396L32.459,12.396z"/>
		<path fill="#FFFFFF" d="M21.4,8.226c0.311,0.324,0.299,0.839-0.025,1.149l-3.798,3.607c-0.324,0.311-0.838,0.301-1.149-0.024l0,0
			c-0.311-0.323-0.3-0.838,0.025-1.149l3.798-3.606C20.575,7.892,21.09,7.902,21.4,8.226L21.4,8.226z"/>
	</g>
</g>
<g id="人体红外" display="none">
	<g id="图层_14" display="inline">
		<g>
			<circle fill="#FFFFFF" cx="30.788" cy="12.157" r="1.854"/>
			<g>
				<path fill="#FFFFFF" d="M27.213,15.089c-0.984-0.76-1.55-1.907-1.55-3.151c0-1.325,0.655-2.558,1.753-3.299
					c0.537-0.263,0.975,0.472,0.561,0.828c-0.821,0.556-1.313,1.479-1.313,2.472c0,0.932,0.423,1.791,1.161,2.36
					C28.203,14.703,27.75,15.328,27.213,15.089z"/>
				<path fill="#FFFFFF" d="M25.066,17.207c-1.394-1.295-2.191-3.245-2.191-5.352c0-2.242,0.928-4.335,2.482-5.603
					c0.502-0.27,0.938,0.48,0.627,0.777c-1.391,1.229-2.109,2.975-2.109,4.826c0,1.828,0.684,3.513,1.873,4.619
					C26.172,16.953,25.578,17.484,25.066,17.207z"/>
				<path fill="#FFFFFF" d="M22.598,19.839c-0.604-0.487-1.087-1.297-1.465-1.968c-1.034-1.837-1.51-3.965-1.51-6.064
					c0-3.367,1.258-6.512,3.365-8.414c0.387-0.284,1.043,0.248,0.667,0.745c-1.466,1.332-2.36,3.202-2.769,5.119
					c-0.178,0.837-0.265,1.694-0.265,2.55c0,0.649,0.049,1.299,0.149,1.941c0.318,2.038,1.162,3.859,2.535,5.395
					C23.768,19.594,23.156,20.297,22.598,19.839z"/>
			</g>
			<g>
				<circle fill="#FFFFFF" cx="12.771" cy="2.329" r="2.338"/>
				<path fill="#FFFFFF" d="M13.773,12.543c0,0.582-0.472,1.055-1.055,1.055l0,0c-0.583,0-1.055-0.473-1.055-1.055V4.421
					c0-0.583,0.472-1.055,1.055-1.055l0,0c0.583,0,1.055,0.472,1.055,1.055V12.543z"/>
				<path fill="#FFFFFF" d="M9.983,21.307c-0.234,0.532-0.857,0.775-1.39,0.541l0,0c-0.533-0.234-0.776-0.855-0.542-1.389l3.701-8.4
					c0.234-0.533,0.856-0.774,1.39-0.541l0,0c0.534,0.234,0.776,0.855,0.542,1.389L9.983,21.307z"/>
				<path fill="#FFFFFF" d="M15.596,21.307c0.234,0.532,0.857,0.775,1.39,0.541l0,0c0.533-0.234,0.776-0.855,0.542-1.389l-3.701-8.4
					c-0.234-0.533-0.856-0.774-1.39-0.541l0,0c-0.534,0.234-0.776,0.855-0.542,1.389L15.596,21.307z"/>
				<path fill="#FFFFFF" d="M15.481,12.482c0.226,0.422,0.752,0.582,1.176,0.354l0,0c0.422-0.228,0.583-0.753,0.355-1.175
					l-3.573-6.66c-0.227-0.423-0.752-0.582-1.176-0.355l0,0c-0.422,0.226-0.582,0.751-0.355,1.174L15.481,12.482z"/>
				<path fill="#FFFFFF" d="M10.098,12.482c-0.227,0.422-0.753,0.582-1.176,0.354l0,0c-0.422-0.228-0.583-0.753-0.356-1.175
					l3.573-6.661c0.227-0.423,0.752-0.582,1.176-0.355l0,0c0.422,0.226,0.582,0.751,0.355,1.174L10.098,12.482z"/>
			</g>
		</g>
	</g>
</g>
<g id="摇杆的值" display="none">
	<g display="inline">
		<g>
			<g>
				<path fill="#FFFFFF" d="M18.883,10.921c-2.565,0-4.653-2.087-4.653-4.653c0-2.565,2.087-4.653,4.653-4.653
					c2.566,0,4.654,2.087,4.654,4.653S21.449,10.921,18.883,10.921z M18.883,2.865c-1.876,0-3.403,1.526-3.403,3.403
					s1.526,3.403,3.403,3.403s3.404-1.527,3.404-3.403S20.76,2.865,18.883,2.865z"/>
				<path fill="#FFFFFF" d="M19.004,20.152c-4.468,0-8.992-1.139-8.992-3.314c0-2.096,4.024-3.07,7.471-3.27l0.072,1.248
					c-4.393,0.252-6.293,1.461-6.293,2.021c0,0.7,2.732,2.063,7.742,2.063s7.743-1.363,7.743-2.063c0-0.657-2.171-1.752-6.099-2.009
					l0.082-1.248c3.353,0.221,7.267,1.205,7.267,3.257C27.997,19.014,23.473,20.152,19.004,20.152z"/>
				<path fill="#FFFFFF" d="M19.005,17.609c-1.298,0-2.31-0.812-2.31-1.405v-6.203h1.25v5.884c0.076,0.176,0.45,0.475,1.06,0.475
					c0.61,0,1.088-0.268,1.151-0.475v-5.884h1.25l-0.012,6.203C21.406,16.859,20.304,17.609,19.005,17.609z"/>
			</g>
			<text transform="matrix(1.0726 0 0 1 24.457 9.1309)" fill="#FFFFFF" font-family="'MicrosoftYaHeiUI'" font-size="11.1874">x</text>
		</g>
	</g>
</g>
</svg>
